<svg version="1.0" xmlns="http://www.w3.org/2000/svg"
  width="2085px" height="2085px" viewBox="0 0 2085 2085">
  <g fill="#A2E635">
    <path d="M753.37 1579.84 c-27.49 -20.16 -59.86 -44.18 -72.28 -53.35
    -12.22 -9.16 -56.20 -41.13 -97.73 -71.26 -41.33 -29.93 -76.56 -56.20
    -77.78 -58.03 -2.04 -2.44 -2.65 -32.58 -2.65 -133.98 l0 -130.72
    37.26 -27.28 c20.36 -15.27 99.36 -73.10 175.51 -128.89 76.15 -55.79
    167.37 -122.58 202.60 -148.64 35.23 -25.86 70.04 -51.11 77.17 -55.99
    18.33 -12.22 43.98 -23.82 66.99 -30.13 l19.75 -5.50 153.73 -0.41
    c146.19 -0.61 153.52 -0.41 149.04 3.05 -2.65 1.83 -15.88 12.22
    -29.52 23.01 -13.64 10.59 -27.49 21.18 -30.95 23.42 -5.90 3.67
    -24.64 17.71 -63.73 47.44 -10.18 7.94 -19.14 14.46 -19.75 14.46
    -0.61 0 -10.18 7.33 -21.18 16.29 -11.20 8.96 -21.18 16.29 -21.99
    16.29 -0.81 0 -8.14 5.29 -16.09 11.81 -7.94 6.31 -19.55 15.27
    -26.06 19.75 -6.31 4.48 -26.88 19.55 -45.41 33.60 -44.79 33.80
    -61.69 46.42 -80.02 59.86 -8.35 6.11 -23.42 17.51 -33.60 25.25
    -9.98 7.74 -24.03 18.12 -30.75 23.01 -6.92 4.89 -18.94 13.64
    -26.47 19.55 -7.74 5.90 -19.34 14.66 -25.86 19.34 -6.31 4.89
    -17.31 13.03 -24.43 18.33 -6.92 5.29 -15.88 12.01 -19.75 14.86
    -3.87 3.05 -19.55 14.66 -34.61 26.06 -15.07 11.40 -28.91 21.79
    -30.75 22.80 -4.07 2.44 -24.23 17.51 -47.65 35.63 -9.37 7.33
    -20.36 15.47 -24.43 18.33 -4.07 2.85 -17.92 13.44 -31.15 23.42
    -13.03 10.18 -28.51 21.58 -34.21 25.45 -8.55 5.90 -37.26 27.08
    -78.59 58.44 -4.28 3.05 -11.20 8.14 -15.27 11.40 -4.28 3.05
    -15.07 11.40 -24.23 18.33 -8.96 6.92 -21.58 16.09 -27.90 20.36
    -6.31 4.28 -12.01 8.55 -12.62 9.57 -0.81 1.43 120.95 2.04 346.55
    2.04 227.64 0 352.25 0.81 361.01 2.04 38.28 6.11 75.95 26.06
    100.79 53.35 23.21 25.66 37.87 57.01 55.99 119.32 6.72 23.01
    12.22 42.56 12.22 43.37 0 1.02 -130.72 1.83 -290.56 1.83
    l-290.76 -0.20 -49.89 -36.65z"/>
    <path d="M699.41 1345.88 c1.22 -1.83 82.26 -62.92 266.73 -200.56
    40.32 -30.13 127.87 -95.49 194.45 -145.38 66.58 -49.68 151.90
    -113.41 189.36 -141.31 37.46 -28.10 104.25 -77.98 148.43 -111.17
    l80.43 -60.27 -357.34 -1.02 c-403.36 -1.22 -363.86 0.61 -401.93
    -18.12 -43.17 -21.38 -72.08 -55.18 -90.81 -106.08 -10.79 -29.93
    -28.10 -92.44 -26.06 -94.68 1.43 -1.43 100.99 -2.24 288.72 -2.65
    l286.69 -0.61 58.84 43.17 c68.01 50.09 148.03 108.32 203.61 148.84
    l38.89 28.10 1.43 19.14 c0.61 10.59 1.22 70.25 1.22 132.76
    l-0.20 113.41 -5.90 5.50 c-3.46 3.26 -10.38 8.55 -15.68 12.01
    -5.29 3.46 -15.47 11 -22.80 16.49 -7.33 5.70 -25.66 19.34
    -40.32 30.13 -14.86 10.79 -29.32 21.58 -32.37 23.82 -3.05 2.24
    -7.53 5.50 -10.18 7.13 -2.44 1.63 -8.55 6.11 -13.44 9.77
    -4.89 3.67 -17.92 13.44 -29.12 21.79 -11.20 8.35 -23.62 17.51
    -27.49 20.36 -3.87 3.05 -16.09 12.01 -26.88 19.95 -10.79 8.14
    -22.19 16.49 -25.25 18.73 -2.85 2.24 -7.53 5.50 -9.98 7.13
    -2.65 1.63 -13.44 9.77 -24.23 17.92 -10.59 7.94 -19.95 14.66
    -20.77 14.66 -0.61 0 -8.14 5.50 -16.70 12.42 -8.35 6.72
    -17.71 13.85 -20.56 15.68 -2.85 1.83 -9.37 6.52 -14.46 10.59
    -5.09 4.07 -11.40 8.76 -14.25 10.59 -2.85 1.83 -9.98 6.92
    -15.68 11.20 -5.90 4.28 -19.55 14.25 -30.34 21.99 -10.79 7.94
    -26.27 19.55 -34.41 26.06 -8.14 6.31 -15.47 11.61 -16.29 11.61
    -0.81 0 -5.09 3.26 -9.77 7.13 -4.48 3.87 -9.16 7.13 -10.18 7.13
    -1.02 0 -6.52 3.26 -12.01 7.33 -12.22 8.55 -39.30 20.16
    -61.69 25.86 -15.68 4.07 -22.40 4.28 -169.61 4.89
    -106.49 0.61 -153.12 0.20 -152.10 -1.43z"/>
  </g>
</svg>
